<svg id="4e0aeb7c-2f3f-4761-9815-cefc55b6c933" data-name="Layer 1" xmlns="http://www.w3.org/2000/svg" viewBox="0 0 362.87 361.41"><title>nypl.mark.inv</title><path d="M294.6,131.5c-13.5-6.6-31-9.9-43.7-17-10.1-5.6-17.8-14.8-28.6-19.8a210.53,210.53,0,0,0-34.1-12.4c-22.5-5.5-41.4,1.7-48,6.9-12.2,9.7-21.8,25.4-18.1,48,1.6,9.6,4.5,17.6,9.2,24.2,19,26.8,54.5,35.5,82.6,52.4a1.83,1.83,0,0,0,2.7-.4c4.7-7,8.6-12.5,16.5-15.9,8.1-3.4,20.8-2.2,31.8-1.7,11.3,0.5,23.6-.5,27.7-6.4,4.9-7,4.6-21.1-2.9-25.4-4-2.3-10-2.4-14.4-4.4a15.19,15.19,0,0,1-7.4-8.1c-1.5-3.2-2.8-8.5-.9-11.9,1.8-3.2,6.2-2.3,9.8-1.4,7.1,1.6,18.9,3.3,25.7.4C304.5,137.6,297.3,132.8,294.6,131.5Zm-70.9-3.9c-0.6,3.2-2.5,9.2-5.6,9.6s-5.3-2.9-7.5-4.2c-3.7-2.1-9-3.5-13.9-5.1-4.2-1.4-10-3.1-11.7-7.2-2.5-6,3.4-8.8,7.7-10.2a47.09,47.09,0,0,1,12.2-2c7.7-.4,15.1.7,17.7,5.6C224,117.2,224.5,123,223.7,127.6Z" transform="translate(-6.2 -5.27)" fill="#fff"/><path d="M10,150.4a8,8,0,0,1,2-4.7c2.2-3.3,28.8-33.1,69.9-40.3,5.4-.8,9.3-0.4,10.2,1.8,1.6,3.8-1.6,6-5.4,8.2-66,39.5-61.3,98.1-62,122.1,0.2,9.8-6.9,11.6-8.7,7C8.3,223.3,1.8,190.1,10,150.4Z" transform="translate(-6.2 -5.27)" fill="#fff"/><path d="M54.7,64a8.52,8.52,0,0,1,4.2-2.7A108.93,108.93,0,0,1,128,67.2c4.1,1.8,6,4.4,3.3,6.1-3.4,2-13.8,8.8-19.6,14.1-1.7,1.4-4.7,1.5-6.4,1.3-21.5-2.8-32.6-4.5-64.9,7.7-5,2.1-9.4-.8-7.1-4.6C37.6,84.1,47.6,71.2,54.7,64Z" transform="translate(-6.2 -5.27)" fill="#fff"/><path d="M96.4,38.6c-5.6-.6-5.6-4.7-3.3-6.3,6-4.2,15.8-9.3,25.7-13.2,3-1.2,4.5-1.5,7.2-1.2,7.3,0.7,19.3,5.6,33.1,15.4,16.5,11.8,31.2,34.2,21.4,32.4a86.4,86.4,0,0,0-10.8-1.6c-7.5-.7-12.3.1-15.8-0.2a6.44,6.44,0,0,1-3.7-2C136.2,49.4,120.1,41.5,96.4,38.6Z" transform="translate(-6.2 -5.27)" fill="#fff"/><path d="M362.1,234.5c-1.5,4.6-3.3,10.5-7,7.8-7-5.2-22.7-15.3-37.8-20.9-0.8-.2-0.7-1.3-0.4-1.9a25.24,25.24,0,0,0,2-7.4c0.4-2.6,2.3-4.4,3.6-6.5,3.9-6.2,6-17,6.8-23.8a59.52,59.52,0,0,0-1.1-18.9c-0.6-2.5-2.3-5.6-2.3-8.3s1.3-5.4,1.6-8.6c0.7-9.1-10.7-16.7-17-19.6-14.2-6.6-29.3-12.6-44.6-20.7-8.7-4.6-15.6-14.6-22.6-20S213.7,71.3,204.7,69c-2-.6-2.8-1.5-3.1-3.1-3.7-17.7-14.2-37.3-33.7-52.4-6.3-4.9.8-7.7,9.5-8.1C314.7,0.7,393.8,127.2,362.1,234.5Z" transform="translate(-6.2 -5.27)" fill="#fff"/><path d="M306.3,173.7c-0.1-.7-0.4-3.1-0.4-3.6,0-1.2,2.6-2.9,3.8-3.9a40.14,40.14,0,0,1,5.3-3.7c0.5-.3.8,0.4,0.9,0.6,5.1,7.7,3.2,26.7-.5,35.7-0.4.9-1.2,1.3-1.5,0.6-1.9-4.1-4.6-7.7-7.8-9.8a2.13,2.13,0,0,1-.6-1.6A41.41,41.41,0,0,0,306.3,173.7Z" transform="translate(-6.2 -5.27)" fill="#fff"/><path d="M243.6,220.5c1.1-3.2,2.4-5,4.8-6.5,4.6-2.9,12.3-3,19.7-3.5,7.2-.5,14.8-0.9,19.9-3.3,3.1-1.4,6.2-5.5,10.9-3.4a7.88,7.88,0,0,1,4.2,5.1,18.42,18.42,0,0,1,1.1,7.7c-0.7,8.9-7.9,13.2-9.2,21.5-0.1,1.3-.3,3.1-1.1,3.9-5.5,5.6-16.4,4.4-26.2,3.4-3.5-.3-7-0.4-9.4-1.6a18.7,18.7,0,0,1-4.7-3.8c-3.1-2.9-4.9-5.1-8.1-8.6-1.1-1.2-3.5-3.4-3.7-4.7C241.8,225.5,243.2,221.8,243.6,220.5Z" transform="translate(-6.2 -5.27)" fill="#fff"/><path d="M71.5,325a28.6,28.6,0,0,1-7.2-9C47.4,289.1,38,193.9,59.7,161.6c6.9-11.3,14.2-6.1,11.8,2.6-4.2,19.6-1.6,30.7,7.9,52,15,31.7,61.4,75.7,73.6,91.6,21,27.4,28,47.3,27.9,52.7-0.1,4.1-.9,6.7-8.1,6.1C134.7,363.6,97.9,347.8,71.5,325Z" transform="translate(-6.2 -5.27)" fill="#fff"/><path d="M93.2,196.5c-11.6-28.3-4-53.8,1.1-63.4,2.6-4.9,5.1-8.1,8.4-7.1,3.6,1,4.4,4.7,4.9,11.5,3.7,56.6,37.9,75.6,80.8,95.6,33.9,17.3,72.5,37.1,104.8,85.1,4.9,6.9,5.6,11.1.1,15.1-19.7,13.5-37.6,22.8-63.7,28.9-3.9.9-8,.2-11.5-8.8C181.9,259.9,121,264.1,93.2,196.5Z" transform="translate(-6.2 -5.27)" fill="#fff"/><path d="M318,311.5c-5.5,5.5-8.7,1.2-10.5-2.4-7.7-16.5-15.3-30.2-27.5-43.6-2.1-2.1-.5-5.1,2.6-4.8a19.54,19.54,0,0,0,10.9-1.8c3.7-1.6,7.9-6.8,10-14.2,1.5-5.4,1.6-7,4.9-7.4a9.91,9.91,0,0,1,3.3.4c4,1.2,8.4,4.5,11.6,6.9,8.1,6.2,20.3,19.9,22.4,24.4,1.3,2.8.1,4.7-.7,6.4C340.8,284.1,327.4,302.2,318,311.5Z" transform="translate(-6.2 -5.27)" fill="#fff"/></svg>