<svg id="4b57b47b-f909-4096-a7e6-187f0e098cbc" data-name="Layer 1" xmlns="http://www.w3.org/2000/svg" viewBox="0 0 426.7 427.1"><title>NYPL_mark1_black_pos.3</title><circle cx="213.4" cy="213.3" r="209.1" fill="#fff"/><path d="M227,156.2c5.3,1.7,11,3.2,15,5.5,2.4,1.3,4.8,4.9,8.1,4.5s5.4-7,6-10.4c0.9-4.9.4-11.2-1.3-14.3-2.8-5.2-10.8-6.4-19.1-6a50,50,0,0,0-13.2,2.1c-4.6,1.4-11,4.5-8.3,10.9C216.15,152.8,222.35,154.7,227,156.2Z" transform="translate(-4.25 -5)"/><path d="M216.65,5C99.65,5,4.25,100.2,4.25,218.5s96,213.6,212.6,213.6c118.4,0,214.1-95.2,214.1-213.5S335.05,5,216.65,5ZM92.15,368.4c-3.9-3.2-5.6-5.9-7.8-9.6-18.1-29-28.3-131.6-4.9-166.5,7.4-12.2,15.3-6.6,12.7,2.9-4.5,21.2-1.7,33,8.6,56,16.2,34.1,66.1,81.5,79.3,98.7,22.7,29.5,30.2,51,30.1,56.7-0.1,4.4-1,7.3-8.8,6.6C160.25,410,120.65,393,92.15,368.4ZM405.25,271c-1.6,5-3.5,11.3-7.6,8.4-7.6-5.6-24.4-16.5-40.8-22.5-0.9-.2-0.8-1.4-0.5-2.1a28.55,28.55,0,0,0,2.2-8c0.5-2.8,2.5-4.7,3.9-7,4.2-6.7,6.5-18.3,7.4-25.6a62.34,62.34,0,0,0-1.2-20.3c-0.6-2.7-2.5-6.1-2.5-9s1.4-5.9,1.7-9.3c0.8-9.8-11.5-18-18.3-21.1-15.3-7.1-31.6-13.5-48.1-22.3-9.3-4.9-16.8-15.7-24.3-21.5s-31.9-15.5-41.6-18c-2.2-.7-3-1.6-3.3-3.3C228.25,70.3,217,49.2,196,33c-6.8-5.3.8-8.3,10.2-8.8C354.25,19,439.45,155.3,405.25,271Zm-60.2-65.5c-0.1-.8-0.4-3.3-0.4-3.8,0-1.3,2.8-3.2,4.1-4.2a35.69,35.69,0,0,1,5.7-4c0.5-.3.9,0.4,1,0.6,5.5,8.3,3.4,28.8-.5,38.5-0.5,1-1.3,1.4-1.6.7-2-4.4-5-8.3-8.4-10.5a2,2,0,0,1-.6-1.7A47,47,0,0,0,345.05,205.5Zm-178.8-91.2c7.1-5.6,27.4-13.4,51.7-7.4a235.31,235.31,0,0,1,36.7,13.4c11.7,5.4,20,15.3,30.9,21.3,13.7,7.6,32.6,11.2,47.1,18.3,2.9,1.4,10.6,6.6,8.5,7.7-7.3,3.2-20,1.4-27.7-.4-3.8-.9-8.6-1.9-10.5,1.6-2.1,3.7-.6,9.4,1,12.8,1.9,4.1,4.5,7.1,8,8.7,4.7,2.2,11.2,2.3,15.5,4.8,8.1,4.6,8.4,19.8,3.1,27.3-4.4,6.3-17.6,7.5-29.8,6.9-11.8-.6-25.5-1.8-34.2,1.8s-12.7,9.6-17.8,17.1a2,2,0,0,1-2.9.4c-30.3-18.2-68.6-27.6-89-56.5-5-7.1-8.2-15.8-9.9-26.1C142.75,141.7,153.05,124.7,166.25,114.3ZM119,59.9c-6-.7-6.1-5.1-3.5-6.8,6.5-4.6,17-10.1,27.7-14.3,3.2-1.3,4.8-1.6,7.7-1.3,7.8,0.8,20.8,6,35.6,16.6,17.8,12.7,33.7,36.9,23.1,34.9A100,100,0,0,0,198,87.3c-8-.7-13.3.1-17-0.3-1.6-.1-2.9-1.2-4-2.1C161.85,71.5,144.45,63,119,59.9Zm158.6,196c1.2-3.4,2.5-5.4,5.2-7,5-3.1,13.2-3.2,21.2-3.8,7.7-.5,16-1,21.5-3.5,3.3-1.5,6.6-5.9,11.8-3.7a8.5,8.5,0,0,1,4.5,5.5,21.37,21.37,0,0,1,1.2,8.3c-0.7,9.6-8.5,14.2-9.9,23.1-0.1,1.4-.4,3.4-1.2,4.2-5.9,6-17.6,4.8-28.2,3.7-3.8-.4-7.5-0.5-10.1-1.7a19.55,19.55,0,0,1-5-4.1,113,113,0,0,1-8.7-9.3c-1.2-1.3-3.8-3.6-3.9-5C275.65,261.2,277.05,257.3,277.55,255.9ZM74.05,87.2a8.9,8.9,0,0,1,4.6-2.9,117.8,117.8,0,0,1,74.5,6.3c4.4,2,6.4,4.7,3.5,6.6-3.7,2.2-14.9,9.4-21.1,15.2-1.8,1.6-5,1.6-6.9,1.4-23.1-3.1-35.2-4.9-69.9,8.3-5.3,2.2-10.1-.8-7.7-5C55.55,108.9,66.35,95,74.05,87.2ZM26,180.3c0.4-2.5.6-3.2,2.1-5.1,2.4-3.5,31-35.6,75.3-43.4,5.8-.8,10-0.4,11,1.9,1.7,4.1-1.7,6.5-5.8,8.8-71.1,42.5-66.1,105.7-66.8,131.6,0.2,10.6-7.4,12.5-9.3,7.5C24.15,258.9,17.05,223.2,26,180.3Zm89.6,49.7c-12.5-30.5-4.3-57.9,1.2-68.3,2.8-5.3,5.5-8.7,9.1-7.7,3.9,1.1,4.8,5,5.3,12.4,3.9,60.9,40.8,81.5,87.1,103,36.5,18.7,78.1,40,112.9,91.7,5.3,7.5,6,12,.1,16.3-21.2,14.5-40.5,24.6-68.6,31.2-4.2,1-8.6.2-12.4-9.4C211.15,298.3,145.55,302.9,115.55,230Zm242.2,123.9c-6,5.9-9.3,1.3-11.3-2.5-8.3-17.7-16.5-32.6-29.6-46.9-2.3-2.3-.5-5.5,2.8-5.2a21.94,21.94,0,0,0,11.8-1.9c4-1.7,8.5-7.3,10.8-15.3,1.7-5.8,1.7-7.6,5.3-7.9a10.78,10.78,0,0,1,3.5.4c4.4,1.2,9,4.8,12.5,7.4,8.8,6.7,21.9,21.5,24.1,26.3,1.5,3,.1,5.1-0.8,6.9C382.35,324.5,367.85,343.9,357.75,353.9Z" transform="translate(-4.25 -5)"/></svg>